<?xml version="1.0" standalone="no"?>
<!DOCTYPE svg PUBLIC "-//W3C//DTD SVG 20010904//EN"
 "http://www.w3.org/TR/2001/REC-SVG-20010904/DTD/svg10.dtd">
<svg version="1.0" xmlns="http://www.w3.org/2000/svg"
 width="48.000000pt" height="48.000000pt" viewBox="0 0 48.000000 48.000000"
 preserveAspectRatio="xMidYMid meet">

<g transform="translate(0.000000,48.000000) scale(0.100000,-0.100000)"
fill="#000000" stroke="none">
<path d="M167 464 c-110 -35 -183 -159 -158 -270 42 -187 262 -253 396 -119
60 59 83 135 65 212 -30 137 -171 219 -303 177z m38 -71 c-3 -10 -9 -30 -12
-45 l-5 -28 96 0 c57 0 96 -4 96 -10 0 -6 -41 -10 -103 -10 l-103 0 -22 -68
c-12 -38 -22 -71 -22 -75 0 -4 13 -7 29 -7 27 0 31 5 51 65 12 36 26 65 31 65
4 0 17 -17 28 -37 l19 -37 22 44 23 45 24 -69 c12 -39 23 -78 23 -89 0 -31
-18 -9 -36 45 l-17 52 -19 -37 c-10 -20 -21 -37 -23 -37 -2 0 -13 16 -23 36
l-19 36 -19 -53 -19 -54 -53 -3 c-62 -4 -62 -4 -27 98 14 40 25 75 25 77 0 2
-11 3 -25 3 -14 0 -25 5 -25 10 0 6 13 10 29 10 25 0 31 5 42 38 15 47 18 52
31 52 6 0 7 -8 3 -17z"/>
</g>
</svg>
